<?xml version="1.0" encoding="UTF-8"?>
<svg xmlns="http://www.w3.org/2000/svg" id="Capa_1" data-name="Capa 1" viewBox="0 0 392.52 180.37">
  <defs>
    <style>
      .cls-1 {
        fill: #1111a5;
      }
    </style>
  </defs>
  <g>
    <path class="cls-1" d="M45.46,140.4h-6.78v6.31h7.59v1.9h-9.87v-17.51h9.48v1.9h-7.2v5.53h6.78v1.87Z"></path>
    <path class="cls-1" d="M83,148.61v-17.51h2.49l5.59,8.86c1.27,2.05,2.31,3.9,3.12,5.69l.08-.03c-.21-2.34-.26-4.47-.26-7.2v-7.33h2.13v17.51h-2.29l-5.56-8.88c-1.22-1.95-2.39-3.95-3.25-5.85l-.08.03c.13,2.21.16,4.31.16,7.22v7.48h-2.13Z"></path>
    <path class="cls-1" d="M137.75,148.61l-5.74-17.51h2.47l2.73,8.63c.73,2.36,1.38,4.49,1.87,6.55h.05c.49-2.03,1.2-4.24,2-6.52l2.96-8.65h2.42l-6.26,17.51h-2.49Z"></path>
    <path class="cls-1" d="M183.55,143.1l-1.82,5.51h-2.34l5.98-17.51h2.7l5.98,17.51h-2.42l-1.87-5.51h-6.21ZM189.32,141.33l-1.74-5.04c-.39-1.14-.65-2.18-.91-3.2h-.05c-.26,1.01-.52,2.1-.88,3.17l-1.71,5.07h5.3Z"></path>
    <path class="cls-1" d="M230.13,145.85c1.01.65,2.47,1.14,4.03,1.14,2.31,0,3.66-1.22,3.66-2.99,0-1.61-.94-2.57-3.3-3.45-2.86-1.04-4.62-2.55-4.62-4.99,0-2.73,2.26-4.75,5.66-4.75,1.77,0,3.09.42,3.84.86l-.62,1.84c-.55-.34-1.71-.83-3.3-.83-2.39,0-3.3,1.43-3.3,2.62,0,1.64,1.07,2.44,3.48,3.38,2.96,1.14,4.44,2.57,4.44,5.14,0,2.7-1.97,5.07-6.11,5.07-1.69,0-3.53-.52-4.47-1.14l.6-1.9Z"></path>
    <path class="cls-1" d="M286.07,140.4h-6.78v6.31h7.59v1.9h-9.87v-17.51h9.48v1.9h-7.2v5.53h6.78v1.87Z"></path>
    <path class="cls-1" d="M323.33,145.85c1.01.65,2.47,1.14,4.03,1.14,2.31,0,3.66-1.22,3.66-2.99,0-1.61-.94-2.57-3.3-3.45-2.86-1.04-4.63-2.55-4.63-4.99,0-2.73,2.26-4.75,5.66-4.75,1.77,0,3.09.42,3.84.86l-.62,1.84c-.55-.34-1.71-.83-3.3-.83-2.39,0-3.3,1.43-3.3,2.62,0,1.64,1.07,2.44,3.48,3.38,2.96,1.14,4.44,2.57,4.44,5.14,0,2.7-1.97,5.07-6.11,5.07-1.69,0-3.53-.52-4.47-1.14l.6-1.9Z"></path>
  </g>
  <g>
    <path class="cls-1" d="M349.66,44.76v-9.25h3.79c.79,0,1.37.09,1.75.26s.69.46.93.86c.24.4.36.87.36,1.4,0,.7-.2,1.26-.61,1.7-.41.43-1.01.71-1.79.83.32.17.56.34.72.51.34.35.63.75.89,1.18l1.49,2.52h-1.42l-1.14-1.92c-.44-.75-.77-1.26-1-1.52-.23-.26-.44-.44-.65-.53s-.51-.14-.88-.14h-1.31v4.11h-1.13ZM350.79,39.59h2.43c.53,0,.93-.06,1.21-.17s.49-.29.65-.54.24-.53.24-.85c0-.47-.15-.83-.46-1.1s-.77-.4-1.37-.4h-2.7v3.06Z"></path>
    <path class="cls-1" d="M353.09,48.93c-4.81,0-8.73-3.91-8.73-8.73s3.91-8.73,8.73-8.73,8.73,3.91,8.73,8.73-3.91,8.73-8.73,8.73ZM353.09,32.55c-4.22,0-7.64,3.43-7.64,7.64s3.43,7.64,7.64,7.64,7.64-3.43,7.64-7.64-3.43-7.64-7.64-7.64Z"></path>
  </g>
  <g>
    <path class="cls-1" d="M227.14,34.09c-20.53-4.74-29.68,14.93-31.45,21.38-1.77,6.45-8.57,32.6-8.57,32.6,0,0-.44,2.47-1.77,2.47s-1.77-2.47-1.77-2.47c0,0-6.8-26.15-8.57-32.6-1.77-6.45-10.92-26.12-31.45-21.38-19.97,4.61-20.58,24.29-20.58,24.29v56.89h25.09v-55.65c0-1.06.35-1.24.97-1.24.78,0,1.15,1.06,1.15,1.06,0,0,.75,2.17,6.71,25.79,5.63,24.09,15.64,30.04,28.45,30.04s22.82-5.94,28.45-30.04c5.97-23.62,6.71-25.79,6.71-25.79,0,0,.37-1.06,1.15-1.06.62,0,.97.18.97,1.24v55.65h25.09v-56.89s-.61-19.68-20.58-24.29Z"></path>
    <path class="cls-1" d="M30.7,74.32h0c0,22.53,18.43,40.96,40.96,40.96h42.62v-24.88h-43.12c-8.84,0-16.08-7.23-16.08-16.08s7.23-16.08,16.08-16.08h43.12v-24.88h-42.62c-22.53,0-40.96,18.43-40.96,40.96Z"></path>
    <path class="cls-1" d="M338.99,58.28v-24.79h-55.64c-18.02,0-27.23,10.34-27.23,26.65v55.14h24.47v-17.08h58.4v-25.32h-58.4v-14.6h58.4Z"></path>
  </g>
</svg>
